{"glyphs":{"A":{"ha":1003,"x_min":0,"x_max":0,"o":"m 247 0 l 28 0 l 383 997 l 624 997 l 975 0 l 749 0 l 685 206 l 317 206 m 372 378 l 626 378 l 503 772 l 500 772 "},"B":{"ha":1003,"x_min":0,"x_max":0,"o":"m 106 997 l 590 997 b 897 742 835 997 897 844 b 775 538 897 599 817 558 b 929 296 897 492 929 394 b 843 90 929 217 896 142 b 528 0 786 35 732 0 l 106 0 m 306 172 l 561 172 b 721 318 663 172 721 217 b 571 439 721 406 646 439 l 306 439 m 306 607 l 550 607 b 697 718 632 607 697 639 b 544 825 697 800 639 825 l 306 825 "},"C":{"ha":1003,"x_min":0,"x_max":0,"o":"m 742 671 b 521 843 725 731 693 843 b 274 494 421 843 274 776 b 521 154 274 315 344 154 b 742 342 636 154 717 219 l 950 342 b 517 -26 908 125 767 -26 b 61 497 251 -26 61 153 b 519 1024 61 846 263 1024 b 950 671 818 1024 939 818 "},"D":{"ha":1003,"x_min":0,"x_max":0,"o":"m 106 997 l 546 997 b 951 522 882 997 951 711 b 538 0 951 308 867 0 l 106 0 m 310 172 l 513 172 b 739 507 682 172 739 343 b 510 825 739 801 599 825 l 310 825 "},"E":{"ha":926,"x_min":0,"x_max":0,"o":"m 839 821 l 310 821 l 310 611 l 796 611 l 796 435 l 310 435 l 310 176 l 863 176 l 863 0 l 106 0 l 106 997 l 839 997 "},"F":{"ha":849,"x_min":0,"x_max":0,"o":"m 314 0 l 106 0 l 106 997 l 815 997 l 815 821 l 314 821 l 314 596 l 753 596 l 753 419 l 314 419 "},"G":{"ha":1081,"x_min":0,"x_max":0,"o":"m 574 538 l 990 538 l 990 0 l 851 0 l 831 125 b 519 -26 778 64 701 -26 b 61 496 279 -26 61 146 b 546 1024 61 767 211 1024 l 549 1024 b 986 688 854 1024 975 825 l 778 688 b 560 851 778 726 707 851 b 274 493 411 851 274 749 b 564 150 274 221 422 150 b 806 369 610 150 763 168 l 574 369 "},"H":{"ha":1003,"x_min":0,"x_max":0,"o":"m 307 447 l 307 0 l 99 0 l 99 997 l 307 997 l 307 619 l 696 619 l 696 997 l 904 997 l 904 0 l 696 0 l 696 447 "},"I":{"ha":386,"x_min":0,"x_max":0,"o":"m 297 0 l 89 0 l 89 997 l 297 997 "},"J":{"ha":772,"x_min":0,"x_max":0,"o":"m 672 289 b 363 -25 672 78 563 -25 b 31 376 31 -25 31 186 l 225 376 b 347 143 225 219 236 143 b 464 289 456 143 464 213 l 464 997 l 672 997 "},"K":{"ha":1003,"x_min":0,"x_max":0,"o":"m 329 0 l 121 0 l 121 997 l 329 997 l 329 592 l 710 997 l 979 997 l 572 589 l 1003 0 l 735 0 l 426 438 l 329 338 "},"L":{"ha":849,"x_min":0,"x_max":0,"o":"m 314 181 l 810 181 l 810 0 l 106 0 l 106 997 l 314 997 "},"M":{"ha":1157,"x_min":0,"x_max":0,"o":"m 1063 0 l 868 0 l 868 833 l 865 833 l 679 0 l 475 0 l 293 833 l 290 833 l 290 0 l 96 0 l 96 997 l 400 997 l 581 211 l 583 211 l 761 997 l 1063 997 "},"N":{"ha":1003,"x_min":0,"x_max":0,"o":"m 714 997 l 908 997 l 908 0 l 700 0 l 293 711 l 290 711 l 290 0 l 96 0 l 96 997 l 315 997 l 711 303 l 714 303 "},"O":{"ha":1081,"x_min":0,"x_max":0,"o":"m 61 499 b 540 1024 61 967 408 1024 b 1019 499 672 1024 1019 967 b 540 -26 1019 31 672 -26 b 61 499 408 -26 61 31 m 269 499 b 540 150 269 219 428 150 b 811 499 653 150 811 219 b 540 847 811 778 653 847 b 269 499 428 847 269 778 "},"P":{"ha":926,"x_min":0,"x_max":0,"o":"m 314 0 l 106 0 l 106 997 l 561 997 b 871 678 754 997 871 874 b 553 360 871 588 821 360 l 314 360 m 507 532 b 663 688 663 532 663 643 b 479 825 663 785 608 825 l 314 825 l 314 532 "},"Q":{"ha":1081,"x_min":0,"x_max":0,"o":"m 660 383 l 765 285 b 811 499 793 336 811 406 b 540 847 811 778 653 847 b 269 499 428 847 269 778 b 540 150 269 219 428 150 b 653 176 575 150 615 157 l 553 271 m 914 -72 l 796 40 b 540 -26 701 -15 599 -26 b 61 499 408 -26 61 31 b 540 1024 61 967 408 1024 b 1019 499 672 1024 1019 967 b 915 143 1019 335 976 221 l 1024 40 "},"R":{"ha":1003,"x_min":0,"x_max":0,"o":"m 106 997 l 610 997 b 924 715 875 997 924 801 b 769 478 924 606 868 511 b 896 225 851 442 896 411 b 940 26 896 79 896 43 l 940 0 l 710 0 b 688 201 696 47 688 99 b 525 390 688 338 679 390 l 310 390 l 310 0 l 106 0 m 554 558 b 715 694 663 558 715 596 b 569 825 715 747 692 825 l 310 825 l 310 558 "},"S":{"ha":926,"x_min":0,"x_max":0,"o":"m 254 307 b 465 146 256 251 283 146 b 674 275 564 146 674 169 b 493 399 674 353 599 374 l 386 424 b 69 717 225 461 69 497 b 453 1024 69 828 129 1024 b 842 701 758 1024 840 824 l 642 701 b 438 851 636 746 619 851 b 264 732 358 851 264 822 b 369 628 264 654 328 638 l 613 568 b 874 300 749 535 874 479 b 481 -26 874 0 568 -26 b 54 307 117 -26 54 183 "},"T":{"ha":849,"x_min":0,"x_max":0,"o":"m 529 0 l 321 0 l 321 821 l 19 821 l 19 997 l 831 997 l 831 821 l 529 821 "},"U":{"ha":1003,"x_min":0,"x_max":0,"o":"m 904 349 b 494 -26 904 86 746 -26 b 178 94 403 -26 267 -4 b 100 336 124 156 103 236 l 100 997 l 313 997 l 313 350 b 490 150 313 211 393 150 b 692 340 633 150 692 219 l 692 997 l 904 997 "},"V":{"ha":926,"x_min":0,"x_max":0,"o":"m 683 997 l 900 997 l 561 0 l 363 0 l 26 997 l 250 997 l 464 242 l 467 242 "},"W":{"ha":1311,"x_min":0,"x_max":0,"o":"m 22 997 l 244 997 b 403 268 372 451 385 382 l 406 268 b 544 997 424 372 439 474 l 765 997 b 914 268 882 450 892 397 l 917 268 b 1079 997 933 363 950 449 l 1290 997 l 1010 0 l 810 0 b 656 778 707 489 689 586 l 653 778 b 499 0 622 586 606 514 l 304 0 "},"X":{"ha":926,"x_min":0,"x_max":0,"o":"m 907 0 l 653 0 l 464 340 l 263 0 l 19 0 l 342 510 l 38 997 l 286 997 l 464 675 l 646 997 l 886 997 l 582 518 "},"Y":{"ha":926,"x_min":0,"x_max":0,"o":"m 574 0 l 365 0 l 365 376 l 21 997 l 267 997 l 474 564 l 671 997 l 907 997 l 574 374 "},"Z":{"ha":849,"x_min":0,"x_max":0,"o":"m 814 0 l 35 0 l 35 176 l 550 821 l 49 821 l 49 997 l 811 997 l 811 833 l 289 176 l 814 176 "}}}
